<svg xmlns="http://www.w3.org/2000/svg" xmlns:xlink="http://www.w3.org/1999/xlink" width="250" zoomAndPan="magnify" viewBox="0 0 187.5 187.499992" height="250" preserveAspectRatio="xMidYMid meet" version="1.0"><defs><clipPath id="d5e919eb99"><path d="M 25.660156 78.929688 L 54.125 78.929688 L 54.125 108.015625 L 25.660156 108.015625 Z M 25.660156 78.929688 " clip-rule="nonzero"/></clipPath></defs><path fill="#1e293b" d="M 20.105469 77.546875 L 20.105469 82.296875 L 11.792969 82.296875 L 11.792969 87.019531 L 19.476562 87.019531 L 19.476562 91.765625 L 11.792969 91.765625 L 11.792969 101.289062 L 6.382812 101.289062 L 6.382812 77.546875 Z M 20.105469 77.546875 " fill-opacity="1" fill-rule="nonzero"/><path fill="#1e293b" d="M 20.453125 101.289062 L 20.453125 86.53125 L 25.546875 86.53125 L 25.546875 88.660156 L 25.605469 88.660156 C 25.640625 88.582031 25.703125 88.484375 25.789062 88.371094 C 25.875 88.253906 26.0625 88.054688 26.347656 87.769531 C 26.636719 87.480469 26.945312 87.21875 27.269531 86.988281 C 27.597656 86.757812 28.015625 86.550781 28.535156 86.371094 C 29.054688 86.1875 29.582031 86.097656 30.121094 86.097656 C 30.675781 86.097656 31.222656 86.175781 31.757812 86.328125 C 32.296875 86.480469 32.691406 86.632812 32.941406 86.785156 L 33.34375 87.019531 L 31.214844 91.335938 C 30.582031 90.796875 29.699219 90.53125 28.570312 90.53125 C 27.953125 90.53125 27.425781 90.664062 26.984375 90.933594 C 26.542969 91.199219 26.230469 91.527344 26.050781 91.910156 C 25.867188 92.292969 25.738281 92.621094 25.660156 92.886719 C 25.585938 93.15625 25.546875 93.367188 25.546875 93.519531 L 25.546875 101.289062 Z M 20.453125 101.289062 " fill-opacity="1" fill-rule="nonzero"/><path fill="#1e293b" d="M 33.542969 99.464844 C 32.164062 97.957031 31.472656 96.109375 31.472656 93.921875 C 31.472656 91.734375 32.164062 89.882812 33.542969 88.371094 C 34.925781 86.855469 36.679688 86.097656 38.8125 86.097656 C 40.765625 86.097656 42.378906 86.710938 43.644531 87.9375 L 43.644531 86.53125 L 48.738281 86.53125 L 48.738281 101.289062 L 43.703125 101.289062 L 43.703125 99.621094 L 43.644531 99.621094 C 42.378906 101.023438 40.765625 101.722656 38.8125 101.722656 C 36.679688 101.722656 34.925781 100.96875 33.542969 99.464844 Z M 37.875 91.421875 C 37.214844 92.074219 36.882812 92.90625 36.882812 93.921875 C 36.882812 94.9375 37.199219 95.769531 37.832031 96.410156 C 38.464844 97.054688 39.296875 97.378906 40.335938 97.378906 C 41.332031 97.378906 42.152344 97.050781 42.796875 96.398438 C 43.441406 95.746094 43.761719 94.921875 43.761719 93.921875 C 43.761719 92.90625 43.429688 92.074219 42.765625 91.421875 C 42.105469 90.769531 41.296875 90.441406 40.335938 90.441406 C 39.355469 90.441406 38.535156 90.769531 37.875 91.421875 Z M 37.875 91.421875 " fill-opacity="1" fill-rule="nonzero"/><path fill="#1e293b" d="M 49.949219 101.289062 L 49.949219 86.53125 L 55.042969 86.53125 L 55.042969 88.082031 L 55.097656 88.082031 C 56.421875 86.757812 57.832031 86.097656 59.328125 86.097656 C 60.402344 86.097656 61.40625 86.316406 62.347656 86.757812 C 63.289062 87.199219 64 87.882812 64.480469 88.800781 C 65.976562 87 67.605469 86.097656 69.371094 86.097656 C 70.941406 86.097656 72.292969 86.539062 73.425781 87.421875 C 74.558594 88.300781 75.125 89.683594 75.125 91.5625 L 75.125 101.289062 L 70.03125 101.289062 L 70.03125 92.945312 C 70.03125 92.160156 69.816406 91.503906 69.382812 90.976562 C 68.953125 90.445312 68.304688 90.183594 67.445312 90.183594 C 66.695312 90.183594 66.125 90.40625 65.730469 90.859375 C 65.335938 91.308594 65.121094 91.851562 65.085938 92.484375 L 65.085938 101.289062 L 59.988281 101.289062 L 59.988281 92.945312 C 59.988281 92.160156 59.773438 91.503906 59.339844 90.976562 C 58.910156 90.445312 58.265625 90.183594 57.402344 90.183594 C 56.613281 90.183594 56.023438 90.429688 55.632812 90.917969 C 55.238281 91.40625 55.042969 91.988281 55.042969 92.660156 L 55.042969 101.289062 Z M 49.949219 101.289062 " fill-opacity="1" fill-rule="nonzero"/><path fill="#1e293b" d="M 90.980469 94.617188 L 80.277344 94.617188 C 80.277344 95.652344 80.609375 96.417969 81.28125 96.917969 C 81.953125 97.414062 82.683594 97.664062 83.46875 97.664062 C 84.296875 97.664062 84.949219 97.554688 85.425781 97.332031 C 85.90625 97.113281 86.453125 96.675781 87.066406 96.023438 L 90.75 97.867188 C 89.214844 100.4375 86.664062 101.722656 83.097656 101.722656 C 80.871094 101.722656 78.960938 100.960938 77.367188 99.4375 C 75.777344 97.910156 74.984375 96.074219 74.984375 93.925781 C 74.984375 91.777344 75.777344 89.933594 77.367188 88.398438 C 78.960938 86.867188 80.871094 86.097656 83.097656 86.097656 C 85.4375 86.097656 87.339844 86.773438 88.808594 88.128906 C 90.277344 89.476562 91.011719 91.410156 91.011719 93.921875 C 91.011719 94.269531 91 94.5 90.980469 94.617188 Z M 80.417969 91.792969 L 86.03125 91.792969 C 85.917969 91.027344 85.613281 90.4375 85.125 90.023438 C 84.636719 89.609375 84.007812 89.402344 83.242188 89.402344 C 82.394531 89.402344 81.722656 89.625 81.222656 90.066406 C 80.726562 90.507812 80.460938 91.082031 80.417969 91.792969 Z M 80.417969 91.792969 " fill-opacity="1" fill-rule="nonzero"/><path fill="#1e293b" d="M 99.011719 90.269531 C 98.050781 90.269531 97.222656 90.625 96.535156 91.335938 C 95.84375 92.042969 95.5 92.898438 95.5 93.894531 C 95.5 94.910156 95.84375 95.777344 96.535156 96.484375 C 97.222656 97.195312 98.050781 97.550781 99.011719 97.550781 C 99.46875 97.550781 99.90625 97.492188 100.316406 97.378906 C 100.730469 97.261719 101.03125 97.148438 101.226562 97.03125 L 101.488281 96.859375 L 103.210938 100.398438 C 103.074219 100.492188 102.890625 100.613281 102.652344 100.757812 C 102.410156 100.902344 101.863281 101.097656 101.011719 101.347656 C 100.15625 101.597656 99.238281 101.722656 98.261719 101.722656 C 96.09375 101.722656 94.191406 100.960938 92.546875 99.4375 C 90.910156 97.910156 90.089844 96.082031 90.089844 93.953125 C 90.089844 91.804688 90.910156 89.957031 92.546875 88.414062 C 94.191406 86.871094 96.09375 86.097656 98.261719 86.097656 C 99.238281 86.097656 100.140625 86.210938 100.96875 86.441406 C 101.792969 86.671875 102.375 86.902344 102.71875 87.132812 L 103.210938 87.476562 L 101.488281 90.957031 C 100.851562 90.5 100.027344 90.269531 99.011719 90.269531 Z M 99.011719 90.269531 " fill-opacity="1" fill-rule="nonzero"/><path fill="#1e293b" d="M 104.042969 99.464844 C 102.664062 97.957031 101.972656 96.109375 101.972656 93.921875 C 101.972656 91.734375 102.664062 89.882812 104.042969 88.371094 C 105.425781 86.855469 107.179688 86.097656 109.3125 86.097656 C 111.265625 86.097656 112.878906 86.710938 114.144531 87.9375 L 114.144531 86.53125 L 119.238281 86.53125 L 119.238281 101.289062 L 114.203125 101.289062 L 114.203125 99.621094 L 114.144531 99.621094 C 112.878906 101.023438 111.265625 101.722656 109.3125 101.722656 C 107.179688 101.722656 105.425781 100.96875 104.042969 99.464844 Z M 108.375 91.421875 C 107.714844 92.074219 107.382812 92.90625 107.382812 93.921875 C 107.382812 94.9375 107.699219 95.769531 108.332031 96.410156 C 108.964844 97.054688 109.796875 97.378906 110.835938 97.378906 C 111.832031 97.378906 112.652344 97.050781 113.296875 96.398438 C 113.941406 95.746094 114.261719 94.921875 114.261719 93.921875 C 114.261719 92.90625 113.929688 92.074219 113.265625 91.421875 C 112.605469 90.769531 111.796875 90.441406 110.835938 90.441406 C 109.855469 90.441406 109.035156 90.769531 108.375 91.421875 Z M 108.375 91.421875 " fill-opacity="1" fill-rule="nonzero"/><path fill="#1e293b" d="M 126.863281 86.097656 C 127.707031 86.097656 128.542969 86.195312 129.367188 86.386719 C 130.195312 86.578125 130.808594 86.769531 131.207031 86.957031 L 131.8125 87.25 L 130.144531 90.585938 C 128.992188 89.972656 127.898438 89.664062 126.863281 89.664062 C 126.289062 89.664062 125.882812 89.726562 125.640625 89.855469 C 125.402344 89.980469 125.28125 90.210938 125.28125 90.554688 C 125.28125 90.632812 125.292969 90.710938 125.308594 90.789062 C 125.328125 90.863281 125.367188 90.9375 125.425781 91.003906 C 125.484375 91.074219 125.535156 91.128906 125.582031 91.179688 C 125.628906 91.226562 125.710938 91.277344 125.828125 91.335938 C 125.941406 91.394531 126.035156 91.4375 126.101562 91.464844 C 126.167969 91.492188 126.277344 91.535156 126.429688 91.59375 C 126.585938 91.652344 126.699219 91.695312 126.777344 91.722656 C 126.855469 91.753906 126.984375 91.796875 127.164062 91.855469 C 127.347656 91.910156 127.488281 91.945312 127.585938 91.964844 C 128.179688 92.140625 128.695312 92.332031 129.136719 92.542969 C 129.578125 92.753906 130.042969 93.042969 130.53125 93.40625 C 131.023438 93.769531 131.402344 94.230469 131.671875 94.789062 C 131.941406 95.34375 132.074219 95.972656 132.074219 96.683594 C 132.074219 100.042969 129.742188 101.722656 125.078125 101.722656 C 124.023438 101.722656 123.023438 101.558594 122.070312 101.234375 C 121.121094 100.90625 120.4375 100.582031 120.015625 100.253906 L 119.382812 99.734375 L 121.457031 96.257812 C 121.609375 96.390625 121.808594 96.546875 122.058594 96.726562 C 122.308594 96.910156 122.761719 97.160156 123.414062 97.476562 C 124.0625 97.792969 124.628906 97.953125 125.109375 97.953125 C 126.164062 97.953125 126.691406 97.597656 126.691406 96.886719 C 126.691406 96.5625 126.554688 96.308594 126.285156 96.125 C 126.019531 95.945312 125.5625 95.738281 124.917969 95.507812 C 124.277344 95.277344 123.777344 95.066406 123.414062 94.871094 C 122.492188 94.390625 121.761719 93.851562 121.222656 93.246094 C 120.6875 92.640625 120.417969 91.839844 120.417969 90.84375 C 120.417969 89.347656 120.996094 88.183594 122.15625 87.347656 C 123.320312 86.515625 124.890625 86.097656 126.863281 86.097656 Z M 126.863281 86.097656 " fill-opacity="1" fill-rule="nonzero"/><path fill="#1e293b" d="M 133.222656 86.53125 L 133.222656 81.03125 L 138.316406 81.03125 L 138.316406 86.53125 L 141.425781 86.53125 L 141.425781 90.414062 L 138.316406 90.414062 L 138.316406 95.105469 C 138.316406 96.46875 138.699219 97.148438 139.46875 97.148438 C 139.660156 97.148438 139.859375 97.109375 140.070312 97.035156 C 140.28125 96.957031 140.449219 96.878906 140.5625 96.800781 L 140.730469 96.683594 L 142 100.800781 C 140.90625 101.414062 139.660156 101.722656 138.261719 101.722656 C 137.300781 101.722656 136.472656 101.554688 135.785156 101.21875 C 135.09375 100.882812 134.574219 100.433594 134.21875 99.867188 C 133.863281 99.300781 133.609375 98.707031 133.453125 98.082031 C 133.296875 97.460938 133.222656 96.792969 133.222656 96.082031 L 133.222656 90.414062 L 131.09375 90.414062 L 131.09375 86.53125 Z M 133.222656 86.53125 " fill-opacity="1" fill-rule="nonzero"/><path fill="#1e293b" d="M 159.148438 77.546875 L 168.730469 101.289062 L 162.917969 101.289062 L 161.164062 96.542969 L 152.128906 96.542969 L 150.375 101.289062 L 144.5625 101.289062 L 154.144531 77.546875 Z M 159.320312 91.792969 L 156.675781 84.890625 L 156.617188 84.890625 L 153.972656 91.792969 Z M 159.320312 91.792969 " fill-opacity="1" fill-rule="nonzero"/><path fill="#1e293b" d="M 167.410156 77.546875 L 172.820312 77.546875 L 172.820312 101.289062 L 167.410156 101.289062 Z M 167.410156 77.546875 " fill-opacity="1" fill-rule="nonzero"/><path fill="#1e293b" d="M 177.308594 95.128906 C 178.226562 95.128906 179.007812 95.453125 179.648438 96.097656 C 180.292969 96.738281 180.617188 97.523438 180.617188 98.441406 C 180.617188 99.34375 180.292969 100.113281 179.648438 100.757812 C 179.007812 101.398438 178.226562 101.722656 177.308594 101.722656 C 176.40625 101.722656 175.632812 101.398438 174.988281 100.757812 C 174.347656 100.113281 174.027344 99.34375 174.027344 98.441406 C 174.027344 97.523438 174.347656 96.738281 174.988281 96.097656 C 175.632812 95.453125 176.40625 95.128906 177.308594 95.128906 Z M 177.308594 95.128906 " fill-opacity="1" fill-rule="nonzero"/><g clip-path="url(#d5e919eb99)"><path fill="#2563eb" d="M 54.027344 93.269531 L 49.84375 93.269531 C 42.683594 91.722656 41.089844 90.121094 39.539062 82.949219 L 39.539062 78.929688 L 39.011719 78.929688 L 39.011719 82.992188 C 37.464844 90.128906 35.863281 91.722656 28.714844 93.269531 L 25.664062 93.269531 L 25.664062 93.800781 L 28.714844 93.800781 C 35.863281 95.347656 37.464844 96.941406 39.011719 104.078125 L 39.011719 108.066406 L 39.539062 108.066406 L 39.539062 104.121094 C 41.089844 96.949219 42.683594 95.351562 49.84375 93.800781 L 54.027344 93.800781 Z M 54.027344 93.269531 " fill-opacity="1" fill-rule="nonzero"/></g></svg>